<?xml version="1.0" standalone="no"?><!DOCTYPE svg PUBLIC "-//W3C//DTD SVG 1.1//EN" "http://www.w3.org/Graphics/SVG/1.1/DTD/svg11.dtd"><svg t="1540361606285" class="icon" style="" viewBox="0 0 1024 1024" version="1.1" xmlns="http://www.w3.org/2000/svg" p-id="1196" xmlns:xlink="http://www.w3.org/1999/xlink" width="200" height="200"><defs><style type="text/css"></style></defs><path d="M940.703387 580.642356l-46.293349-52.699246c-12.308327-12.275581-28.553313-18.367323-44.795229-18.273179-16.307408 0.093121-32.613792 6.371104-45.108361 18.805298L447.210903 820.902372l0 138.599661 137.007397 0L940.266435 670.616554C965.068308 645.75226 965.254549 605.232404 940.703387 580.642356zM561.413921 895.182123l-49.918923 0 0-51.508117 337.619414-270.403546c0-0.031722 0-0.093121 0.062422-0.093121l0.064468-0.064468 45.730531 53.240575L561.413921 895.182123z" p-id="1197"></path><path d="M127.335618 127.819131l447.824375 0 0 255.900228 191.925171 0 0 63.975057 63.975057 0L831.060221 319.744301 575.161017 63.845097 127.335618 63.845097c-35.176151 0-63.975057 28.801976-63.975057 63.975057l0 767.707846c0 35.174104 28.798906 63.97608 63.975057 63.97608l255.899204 0 0-63.97608L127.335618 895.528 127.335618 127.819131zM643.133108 195.793268 768.393973 321.088926 643.133108 321.088926 643.133108 195.793268z" p-id="1198"></path></svg>