<?xml version="1.0" standalone="no"?><!DOCTYPE svg PUBLIC "-//W3C//DTD SVG 1.1//EN" "http://www.w3.org/Graphics/SVG/1.1/DTD/svg11.dtd"><svg t="1539915582783" class="icon" style="" viewBox="0 0 1024 1024" version="1.1" xmlns="http://www.w3.org/2000/svg" p-id="1160" xmlns:xlink="http://www.w3.org/1999/xlink" width="200" height="200"><defs><style type="text/css"></style></defs><path d="M512 995.555556c-139.377778 0-398.222222-216.177778-398.222222-420.977778V167.822222h39.822222s88.177778-2.844444 179.2-39.822222c93.866667-39.822222 153.6-82.488889 153.6-82.488889l22.755556-17.066667 22.755555 17.066667s59.733333 45.511111 153.6 82.488889c91.022222 36.977778 179.2 39.822222 179.2 39.822222h39.822222v406.755556C910.222222 779.377778 651.377778 995.555556 512 995.555556zM193.422222 247.466667v329.955555c0 156.444444 224.711111 338.488889 318.577778 338.488889 91.022222 0 318.577778-182.044444 318.577778-338.488889V247.466667c-39.822222-5.688889-102.4-14.222222-170.666667-42.666667S540.444444 145.066667 512 128c-28.444444 17.066667-79.644444 48.355556-147.911111 76.8-65.422222 25.6-130.844444 36.977778-170.666667 42.666667z m295.822222 480.711111l-167.822222-145.066667 51.2-62.577778 108.088889 93.866667 204.8-238.933333 59.733333 54.044444-256 298.666667z" p-id="1161"></path></svg>