<?xml version="1.0" standalone="no"?><!DOCTYPE svg PUBLIC "-//W3C//DTD SVG 1.1//EN" "http://www.w3.org/Graphics/SVG/1.1/DTD/svg11.dtd"><svg t="1542866762083" class="icon" style="" viewBox="0 0 1024 1024" version="1.1" xmlns="http://www.w3.org/2000/svg" p-id="1302" xmlns:xlink="http://www.w3.org/1999/xlink" width="200" height="200"><defs><style type="text/css"></style></defs><path d="M960.192 1023.808c-102.528-0.256-883.84 0.192-883.84 0.192-59.2-1.664-106.112-82.24-53.504-166.208L351.36 321.344V107.456H224.64c-30.08 0-54.4-21.44-54.4-47.872V47.872c0-26.432 24.32-47.872 54.4-47.872h602.112c30.08 0 54.4 21.44 54.4 47.872V59.52c0 26.432-24.32 47.872-54.4 47.872h-141.824v213.312h1.152s287.872 500.928 310.016 536.896c32 52.032 54.016 166.336-35.84 166.144zM388.48 519.68H640L534.848 344.512V107.456H419.712l-0.192 235.776c-7.808 13.76-295.808 496.256-317.632 534.72-13.312 40.32-0.896 76.8 40.832 78.08l32.32-0.192L388.48 519.68z m235.072 147.968a64.576 64.576 0 1 0-129.152 0 64.576 64.576 0 0 0 129.152 0z m96.96 140.8a50.048 50.048 0 1 0-100.16 0 50.048 50.048 0 0 0 100.16 0z m68.736 72.96a34.944 34.944 0 1 0 69.952 0 34.944 34.944 0 0 0-69.952 0z" p-id="1303"></path></svg>