<?xml version="1.0" standalone="no"?><!DOCTYPE svg PUBLIC "-//W3C//DTD SVG 1.1//EN" "http://www.w3.org/Graphics/SVG/1.1/DTD/svg11.dtd"><svg t="1544063100636" class="icon" style="" viewBox="0 0 1024 1024" version="1.1" xmlns="http://www.w3.org/2000/svg" p-id="3919" xmlns:xlink="http://www.w3.org/1999/xlink" width="200" height="200"><defs><style type="text/css"></style></defs><path d="M529.92 509.44c148.48 0 289.28-25.6 289.28-25.6v-51.2s-143.36 25.6-289.28 25.6c-158.72 0-325.12-25.6-325.12-25.6v51.2s166.4 25.6 325.12 25.6z" fill="" p-id="3920"></path><path d="M727.04 296.96l81.92-140.8c28.16-48.64 10.24-112.64-38.4-140.8-15.36-10.24-33.28-12.8-51.2-12.8-35.84 0-69.12 17.92-89.6 51.2L427.52 404.48c17.92 0 38.4 2.56 58.88 2.56L675.84 79.36c10.24-15.36 25.6-25.6 43.52-25.6 10.24 0 17.92 2.56 25.6 7.68 25.6 15.36 33.28 46.08 17.92 69.12L604.16 407.04c20.48 0 40.96-2.56 61.44-5.12l33.28-56.32c148.48 20.48 273.92 64 273.92 112.64 0 184.32-110.08 348.16-276.48 422.4l-28.16 12.8-2.56 30.72c-2.56 25.6-23.04 46.08-51.2 46.08H409.6c-25.6 0-48.64-20.48-51.2-46.08l-2.56-30.72-28.16-12.8C161.28 806.4 51.2 642.56 51.2 458.24c0-53.76 171.52-107.52 360.96-122.88l30.72-53.76C266.24 291.84 0 340.48 0 458.24c0 209.92 128 391.68 307.2 468.48 5.12 51.2 48.64 94.72 102.4 94.72h204.8c53.76 0 97.28-40.96 102.4-94.72C898.56 847.36 1024 668.16 1024 458.24c0-89.6-151.04-135.68-296.96-161.28z" fill="" p-id="3921"></path></svg>