<?xml version="1.0" standalone="no"?><!DOCTYPE svg PUBLIC "-//W3C//DTD SVG 1.1//EN" "http://www.w3.org/Graphics/SVG/1.1/DTD/svg11.dtd"><svg t="1542190143172" class="icon" style="" viewBox="0 0 1024 1024" version="1.1" xmlns="http://www.w3.org/2000/svg" p-id="1242" xmlns:xlink="http://www.w3.org/1999/xlink" width="200" height="200"><defs><style type="text/css"></style></defs><path d="M879.0784 849.8432c27.136-36.8896 28.5184-88.192 8.8064-143.0528-13.9776 5.0944-28.8 9.6-44.2368 13.3376a128.1024 128.1024 0 0 1-23.0656 45.056c-75.4688 94.592-233.0112 45.7984-366.8992-66.8928 156.4416 53.4528 586.88-8.4992 556.7488-206.9248-6.8608-45.2608-42.1632-82.5344-94.9248-107.3664a418.4576 418.4576 0 0 1-21.8368 40.6784c8.3456 15.0784 13.696 31.232 15.5648 48.1792 13.4912 120.192-132.4032 197.1456-306.7392 212.1472 148.4032-72.8576 408.9856-421.0176 247.3216-540.0064-36.864-27.1616-88.1152-28.5696-143.0528-8.8064 5.1456 13.9264 9.5744 28.7744 13.312 44.2368a127.8976 127.8976 0 0 1 45.1328 23.0144c94.592 75.4688 45.7984 233.0368-66.8928 366.9248 53.4272-156.416-8.5248-586.9312-206.9504-556.7488-45.2864 6.8608-82.5088 42.1376-107.392 94.8992 13.5168 6.272 27.136 13.5936 40.704 21.888a128.768 128.768 0 0 1 48.2048-15.616c120.2176-13.4912 197.1456 132.4032 212.1472 306.7904C612.1728 273.1264 263.9872 12.5184 144.9728 174.1824c-27.1616 36.8896-28.544 88.1408-8.8576 143.0272 13.9776-5.12 28.8256-9.5488 44.2624-13.312a128.1792 128.1792 0 0 1 23.04-45.1328c75.4688-94.5408 233.0112-45.7984 366.9248 66.944-156.4672-53.4272-586.9312 8.4992-556.7744 206.9248 6.912 45.312 42.1632 82.56 94.9248 107.392a405.504 405.504 0 0 1 21.8624-40.704 128.5888 128.5888 0 0 1-15.616-48.2048c-13.4656-120.2176 132.4032-197.12 306.7904-212.1216C273.152 411.8272 12.544 760.0384 174.1824 879.0528c36.9152 27.1616 88.192 28.544 143.0784 8.8576a408.5248 408.5248 0 0 1-13.3376-44.2624 128.5888 128.5888 0 0 1-45.1328-23.04c-94.5664-75.4432-45.7728-233.0624 66.9184-366.8992-53.4016 156.3904 8.5248 586.9056 206.9504 556.6976 45.2864-6.8608 82.5344-42.112 107.3664-94.8992a413.6448 413.6448 0 0 1-40.704-21.8624 126.6688 126.6688 0 0 1-48.2048 15.5392c-120.192 13.5424-197.1456-132.352-212.096-306.688 72.8832 148.4032 420.992 409.0112 540.0576 247.3472zM512 672.5888a160.64 160.64 0 0 0 160.5632-160.6144c0-88.6784-71.9104-160.512-160.5632-160.512s-160.5632 71.8336-160.5632 160.512A160.6144 160.6144 0 0 0 512 672.5888z" fill="" p-id="1243"></path></svg>