<?xml version="1.0" standalone="no"?><!DOCTYPE svg PUBLIC "-//W3C//DTD SVG 1.1//EN" "http://www.w3.org/Graphics/SVG/1.1/DTD/svg11.dtd"><svg t="1544066946574" class="icon" style="" viewBox="0 0 1024 1024" version="1.1" xmlns="http://www.w3.org/2000/svg" p-id="1429" xmlns:xlink="http://www.w3.org/1999/xlink" width="200" height="200"><defs><style type="text/css"></style></defs><path d="M984.615385 945.230769h-40.615385V455.384615c0-21.661538-14.769231-30.769231-39.384615-39.384615l-235.076923-61.538462a39.495385 39.495385 0 0 0-39.384616 39.384616v551.384615h-78.769231V45.538462c0-27.815385-17.723077-45.538462-39.384615-45.538462L116.923077 135.384615c-23.384615 13.538462-39.384615 17.723077-39.384615 45.538462v764.307692H39.384615a39.384615 39.384615 0 0 0-39.384615 39.384616 39.384615 39.384615 0 0 0 39.384615 39.384615h945.23077a39.384615 39.384615 0 0 0 39.384615-39.384615 39.384615 39.384615 0 0 0-39.384615-39.384616z m-907.076923 0c0-1.021538 0-0.516923 0.073846 0z m81.846153-571.273846v-79.606154H278.153846v79.606154z m118.769231 77.932308v79.606154h-118.769231v-79.606154z m-118.769231 157.538461H278.153846v79.606154h-118.769231z m315.076923 79.606154H356.923077v-79.606154h117.538461z m0-157.538461H356.923077v-79.606154h117.538461z m0-157.538462H356.923077v-79.606154h117.538461zM551.384615 945.230769h-0.073846c0.073846-0.516923 0.073846-1.021538 0.073846 0z m312.615385-195.692307H708.923077v-80h155.076923z m1.230769-157.538462H710.153846v-80h155.076923z" p-id="1430"></path></svg>