<?xml version="1.0" standalone="no"?><!DOCTYPE svg PUBLIC "-//W3C//DTD SVG 1.1//EN" "http://www.w3.org/Graphics/SVG/1.1/DTD/svg11.dtd"><svg t="1542880580889" class="icon" style="" viewBox="0 0 1024 1024" version="1.1" xmlns="http://www.w3.org/2000/svg" p-id="1332" xmlns:xlink="http://www.w3.org/1999/xlink" width="200" height="200"><defs><style type="text/css"></style></defs><path d="M606.976 91.136C606.976 40.96 564.48 0 512 0c-52.224 0-94.976 40.704-94.976 91.136 0 5.12 0.512 10.24 1.28 15.104-131.072 43.776-238.592 178.432-238.592 337.408v125.44s0 180.48-46.336 182.016c-27.648 0-48.64 20.48-48.64 45.568 0 25.344 21.248 45.568 47.36 45.568h759.808c26.368 0 47.36-20.48 47.36-45.568 0-25.344-21.248-45.568-47.36-45.568-47.36 0-47.36-180.736-47.36-180.736v-126.464c0-159.488-100.608-293.888-238.592-337.664 0.512-5.12 1.024-10.24 1.024-15.104z m47.36 796.16c-0.256 75.52-63.232 136.704-142.336 136.704-78.592 0-142.336-60.928-142.336-136.704h284.672z" p-id="1333"></path></svg>