<?xml version="1.0" standalone="no"?><!DOCTYPE svg PUBLIC "-//W3C//DTD SVG 1.1//EN" "http://www.w3.org/Graphics/SVG/1.1/DTD/svg11.dtd"><svg t="1534931634843" class="icon" style="" viewBox="0 0 1126 1024" version="1.1" xmlns="http://www.w3.org/2000/svg" p-id="1444" xmlns:xlink="http://www.w3.org/1999/xlink" width="219.921875" height="200"><defs><style type="text/css"></style></defs><path d="M921.275 907.46H192.725A85.725 85.725 0 0 1 107 821.735V178.865C107 131.525 145.385 93.185 192.725 93.185h728.55C968.615 93.185 1007 131.525 1007 178.865v642.87a85.725 85.725 0 0 1-85.725 85.725z m42.885-728.55a42.84 42.84 0 0 0-42.885-42.885H192.725a42.84 42.84 0 0 0-42.885 42.84v171.45h257.175V136.025h42.84v450l85.05-42.84h44.865l84.375 42.84v-450h42.84v214.29h257.175v-171.45z m0 214.245h-257.175v257.175l-128.025-64.305h-43.515l-128.43 64.305V393.155H149.84v428.58c0 23.67 19.215 42.84 42.885 42.84h728.55a42.84 42.84 0 0 0 42.885-42.84V393.2z" p-id="1445"></path></svg>