<?xml version="1.0" standalone="no"?><!DOCTYPE svg PUBLIC "-//W3C//DTD SVG 1.1//EN" "http://www.w3.org/Graphics/SVG/1.1/DTD/svg11.dtd"><svg t="1547709432129" class="icon" style="" viewBox="0 0 1024 1024" version="1.1" xmlns="http://www.w3.org/2000/svg" p-id="4916" xmlns:xlink="http://www.w3.org/1999/xlink" width="200" height="200"><defs><style type="text/css"></style></defs><path d="M1013.28 758.848v-47.712c0-48.352-18.464-76.8-34.176-92.128a107.392 107.392 0 0 0-72.928-30.048h-8.256l96.064-372.672a52.96 52.96 0 0 0-51.264-66.112H387.328a52.96 52.96 0 0 0-52.32 60.64l56.096 377.888-43.68-0.032a49.92 49.92 0 0 1-49.312-42.752L248.16 199.616a81.472 81.472 0 0 0-62.208-67.712l-118.336-27.488a43.232 43.232 0 0 0-51.904 32.32 53.44 53.44 0 0 0 39.936 64.128l44.064 10.208A81.568 81.568 0 0 1 161.92 278.848L214.4 642.56c3.52 24.512 24.576 42.72 49.344 42.72l643.616 0.384s3.36 1.184 4.704 2.496c2.528 2.528 5.6 9.856 5.6 22.976v49.728l-0.128 4.352c0.384 5.12-1.216 13.728-3.456 16.064-0.544 0.544-3.904 2.368-11.776 2.368h-16l-0.16-0.512a122.496 122.496 0 0 0-112.256-73.856 122.464 122.464 0 0 0-112.256 73.856c0 0.192-0.128 0.352-0.16 0.512H465.92a122.464 122.464 0 0 0-112.416-74.368c-50.24 0-93.44 30.464-112.256 73.856-0.096 0.192-0.128 0.352-0.16 0.512h-12.192v95.68h12.096c0.128 0.16 0.16 0.352 0.256 0.544a122.432 122.432 0 0 0 112.256 73.92 122.432 122.432 0 0 0 112.192-73.92l0.224-0.544h195.52a122.432 122.432 0 0 0 112.48 74.464c50.24 0 93.472-30.496 112.256-73.92l0.192-0.544h15.968c43.648 0 69.344-18.368 83.36-33.984 28.864-32.096 29.696-72.864 27.584-86.496z m-463.36-421.6h65.92V271.392h87.168v65.888h68.032v87.168h-68.032v65.888h-87.168v-65.888h-65.92v-87.2zM231.328 823.52a110.432 110.432 0 0 0-0.256 7.968v-0.032c0.032-2.656 0.096-5.28 0.256-7.936z m153.664 56.32a57.376 57.376 0 0 1-63.072 0 57.824 57.824 0 0 1 31.584-106.112 57.696 57.696 0 0 1 31.488 106.112z m420.512 0a57.6 57.6 0 0 1-63.136 0 57.824 57.824 0 0 1 31.552-106.112 57.76 57.76 0 0 1 31.584 106.112z" fill="" p-id="4917"></path></svg>