<?xml version="1.0" standalone="no"?><!DOCTYPE svg PUBLIC "-//W3C//DTD SVG 1.1//EN" "http://www.w3.org/Graphics/SVG/1.1/DTD/svg11.dtd"><svg t="1534929618511" class="icon" style="" viewBox="0 0 1024 1024" version="1.1" xmlns="http://www.w3.org/2000/svg" p-id="1083" xmlns:xlink="http://www.w3.org/1999/xlink" width="200" height="200"><defs><style type="text/css"></style></defs><path d="M896 448l-70.976 0c-8.256-40.704-24.896-78.08-46.912-111.552l50.688-50.688c25.024-25.024 25.024-65.536 0-90.496-24.96-25.024-65.472-25.024-90.496 0l-50.432 50.432C654.336 223.424 616.832 206.72 576 198.464L576 128c0-35.392-28.608-64-64-64S448 92.608 448 128l0 70.464C407.168 206.72 369.664 223.424 336.192 245.696L285.76 195.264C260.736 170.24 220.16 170.24 195.2 195.264c-24.96 24.96-24.96 65.472 0 90.496l50.752 50.688C223.872 369.92 207.232 407.296 198.976 448L128 448C92.608 448 64 476.608 64 512s28.608 64 64 64l70.976 0c8.256 40.704 24.896 78.08 46.912 111.552L195.2 738.24c-24.96 25.024-24.96 65.536 0 90.496 25.024 25.024 65.536 25.024 90.56 0l50.432-50.432C369.664 800.576 407.168 817.28 448 825.536L448 896c0 35.392 28.608 64 64 64s64-28.608 64-64l0-70.464c40.832-8.32 78.336-25.024 111.808-47.232l50.432 50.432c25.024 25.024 65.536 25.024 90.496 0 25.024-24.96 25.024-65.472 0-90.496l-50.688-50.688C800.128 654.08 816.768 616.704 825.024 576L896 576c35.328 0 64-28.608 64-64S931.328 448 896 448zM512 640c-70.656 0-128-57.344-128-128s57.344-128 128-128 128 57.344 128 128S582.656 640 512 640z" p-id="1084"></path></svg>