<?xml version="1.0" standalone="no"?><!DOCTYPE svg PUBLIC "-//W3C//DTD SVG 1.1//EN" "http://www.w3.org/Graphics/SVG/1.1/DTD/svg11.dtd"><svg t="1534931623460" class="icon" style="" viewBox="0 0 1024 1024" version="1.1" xmlns="http://www.w3.org/2000/svg" p-id="1079" xmlns:xlink="http://www.w3.org/1999/xlink" width="200" height="200"><defs><style type="text/css"></style></defs><path d="M557.909333 85.376c6.016 0 10.908444 4.892444 10.908445 10.922667l-0.042667 0.839111-2.375111 30.648889h65.692444c6.926222 0 13.127111 3.882667 16.199112 10.154666l7.808 15.928889h111.644444a67.185778 67.185778 0 0 1 67.100444 67.114667v589.525333a66.702222 66.702222 0 0 1-19.683555 47.431111 66.631111 66.631111 0 0 1-47.416889 19.683556H288.910222a67.185778 67.185778 0 0 1-67.114666-67.114667V220.970667a67.185778 67.185778 0 0 1 67.114666-67.114667h111.630222l7.808-15.928889c3.072-6.257778 9.272889-10.154667 16.199112-10.154667h65.692444l-2.389333-30.634666-0.042667-0.839111a10.951111 10.951111 0 0 1 10.922667-10.922667h59.178666m0-28.444444h-59.178666a39.395556 39.395556 0 0 0-39.239111 42.410666H424.533333a46.535111 46.535111 0 0 0-41.742222 26.069334h-93.895111a95.658667 95.658667 0 0 0-95.559111 95.559111v589.525333a95.658667 95.658667 0 0 0 95.559111 95.559111h478.833778a95.658667 95.658667 0 0 0 95.544889-95.559111V220.970667a95.658667 95.658667 0 0 0-95.544889-95.559111h-93.909334a46.492444 46.492444 0 0 0-41.728-26.069334h-34.958222a39.395556 39.395556 0 0 0-39.224889-42.410666z" fill="" p-id="1080"></path><path d="M627.143111 177.294222H429.482667c-21.162667 0-40.746667-11.946667-51.072-31.175111l25.059555-13.468444c5.361778 9.998222 15.345778 16.213333 26.026667 16.213333h197.646222c10.666667 0 20.650667-6.215111 26.026667-16.213333l25.059555 13.468444c-10.368 19.228444-29.937778 31.175111-51.086222 31.175111zM705.336889 380.387556H350.805333c-24.504889 0-44.444444-19.939556-44.444444-44.444445s19.939556-44.430222 44.444444-44.430222h354.531556a44.487111 44.487111 0 0 1 44.444444 44.430222 44.501333 44.501333 0 0 1-44.444444 44.444445z m-354.531556-60.430223c-8.817778 0-16 7.168-16 15.985778s7.182222 16 16 16h354.531556c8.817778 0 16-7.182222 16-16 0-8.803556-7.182222-15.985778-16-15.985778H350.805333zM705.336889 506.282667H350.805333c-24.504889 0-44.444444-19.939556-44.444444-44.444445s19.939556-44.444444 44.444444-44.444444h354.531556a44.487111 44.487111 0 0 1 44.444444 44.444444 44.515556 44.515556 0 0 1-44.444444 44.444445z m-354.531556-60.444445c-8.817778 0-16 7.182222-16 16s7.182222 16 16 16h354.531556c8.817778 0 16-7.182222 16-16s-7.182222-16-16-16H350.805333zM705.336889 632.163556H350.805333c-24.504889 0-44.444444-19.939556-44.444444-44.444445s19.939556-44.444444 44.444444-44.444444h354.531556c24.504889 0 44.444444 19.939556 44.444444 44.444444s-19.939556 44.444444-44.444444 44.444445z m-354.531556-60.444445c-8.817778 0-16 7.182222-16 16s7.182222 16 16 16h354.531556c8.817778 0 16-7.182222 16-16s-7.182222-16-16-16H350.805333zM705.336889 758.058667H350.805333c-24.504889 0-44.444444-19.939556-44.444444-44.444445s19.939556-44.444444 44.444444-44.444444h354.531556c24.504889 0 44.444444 19.939556 44.444444 44.444444s-19.939556 44.444444-44.444444 44.444445z m-354.531556-60.444445c-8.817778 0-16 7.182222-16 16s7.182222 16 16 16h354.531556c8.817778 0 16-7.182222 16-16s-7.182222-16-16-16H350.805333z" fill="" p-id="1081"></path></svg>