<?xml version="1.0" standalone="no"?><!DOCTYPE svg PUBLIC "-//W3C//DTD SVG 1.1//EN" "http://www.w3.org/Graphics/SVG/1.1/DTD/svg11.dtd"><svg t="1535618654857" class="icon" style="" viewBox="0 0 1024 1024" version="1.1" xmlns="http://www.w3.org/2000/svg" p-id="1136" xmlns:xlink="http://www.w3.org/1999/xlink" width="200" height="200"><defs><style type="text/css"></style></defs><path d="M962.56 353.727488c0-19.372032-16.813056-35.070976-37.5296-35.070976L98.987008 318.656512c-20.752384 0-37.547008 15.698944-37.547008 35.070976l0 522.561536c0 19.36384 16.794624 35.070976 37.547008 35.070976l826.044416 0c20.716544 0 37.5296-15.707136 37.5296-35.070976L962.561024 743.020544 726.017024 743.020544l0-0.021504c-0.644096 0.013312-1.253376 0.021504-1.87904 0.021504-75.684864 0-137.0624-57.311232-137.0624-128.012288 0-70.70208 61.37856-128.013312 137.0624-128.013312 0.625664 0 1.234944 0.018432 1.87904 0.018432l0-0.018432 236.542976 0L962.56 353.727488zM643.4048 615.008256c0 41.652224 36.13184 75.401216 80.734208 75.401216 44.582912 0 80.733184-33.748992 80.733184-75.401216 0-41.644032-36.150272-75.39712-80.733184-75.39712C679.53664 539.611136 643.4048 573.365248 643.4048 615.008256zM872.444928 286.022656l-46.606336-152.408064c-4.690944-15.322112-21.843968-24.228864-38.334464-19.864576l-650.898432 172.27264L872.444928 286.022656z" p-id="1137"></path></svg>