<?xml version="1.0" standalone="no"?><!DOCTYPE svg PUBLIC "-//W3C//DTD SVG 1.1//EN" "http://www.w3.org/Graphics/SVG/1.1/DTD/svg11.dtd"><svg t="1535618660138" class="icon" style="" viewBox="0 0 1161 1024" version="1.1" xmlns="http://www.w3.org/2000/svg" p-id="1256" xmlns:xlink="http://www.w3.org/1999/xlink" width="226.7578125" height="200"><defs><style type="text/css"></style></defs><path d="M1133.939616 598.369229C1121.324527 581.084689 1096.936581 577.128165 1079.273854 589.621975L1009.680602 639.18408C1021.665451 595.660042 1027.97242 550.678699 1027.97242 505.073118 1027.97242 226.646637 799.220972 0.282609 518.328156 0.282609 237.224495 0.282609 8.683891 226.646637 8.683891 505.073118 8.683891 783.499602 237.435339 1009.863629 518.328156 1009.863629 607.264007 1009.863629 694.30685 986.747587 771.048154 943.223552 775.252422 942.39048 779.248135 941.140873 783.033006 938.850492 804.89885 925.939012 825.923615 911.361386 845.477059 895.326454 862.086714 881.79074 864.609959 857.425087 850.733251 840.764785 837.06738 824.313317 812.467446 821.814101 795.646945 835.558653 780.298916 848.053596 763.68926 859.298932 746.659062 869.711196 744.135817 870.544268 741.402873 870.960804 738.879625 872.418113 672.441006 911.776788 596.119095 932.393615 518.117311 932.393615 280.115106 932.393615 86.684527 740.597531 86.684527 505.069715 86.684527 269.541896 280.324803 77.745813 518.327009 77.745813 756.329216 77.745813 949.759795 269.33306 949.759795 505.069715 949.759795 558.589478 939.667954 611.067334 920.325356 660.214036L865.029356 528.60116C856.618534 508.818538 833.701905 499.654748 813.938767 507.776631 793.965926 515.898515 784.504327 538.596888 792.914002 558.380643L881.008773 767.668965C881.849853 769.959345 883.321173 771.625489 884.582799 773.708169 885.003339 774.332406 885.003339 774.957776 885.423879 775.374312 885.633577 775.582013 885.844422 775.582013 885.844422 775.790848 889.207603 780.163908 893.414161 783.705033 898.24981 786.41195 899.090893 786.828486 899.931976 787.245022 900.773059 787.661558 904.767625 789.535403 909.183881 790.992708 913.808688 791.409244 914.649767 791.409244 915.280009 791.201546 916.121091 791.409244 916.541631 791.409244 916.751329 791.616945 917.171869 791.616945 918.012952 791.616945 918.854035 791.409244 919.695118 791.20041 922.638903 790.992708 925.581548 790.576172 928.315638 789.950802 928.945876 789.743101 929.57726 789.534266 929.9978 789.326565 933.151287 788.285792 936.095075 786.827349 938.829165 784.953504 939.249705 784.745807 939.670245 784.536969 940.090788 784.329271L1125.109398 652.508689C1142.560137 639.804911 1146.554703 615.649229 1133.94076 598.363556L1133.939616 598.369229ZM670.339444 337.436122C685.898322 322.650798 686.318862 298.077446 671.180527 282.666751 656.253037 267.256055 631.443401 266.839519 615.884527 281.833679L518.328156 375.127518 420.981484 281.833679C405.422606 267.048355 380.612973 267.256055 365.685484 282.666751 350.75799 298.077446 350.967689 322.650798 366.526563 337.436122L476.276337 442.392969 476.276337 465.092478 398.063712 465.092478C376.408709 465.092478 358.956824 482.377018 358.956824 503.826917 358.956824 525.276815 376.407562 542.561355 398.063712 542.561355L476.276337 542.561355 476.276337 581.295793 398.063712 581.295793C376.408709 581.295793 358.956824 598.580337 358.956824 620.030235 358.956824 641.480134 376.407562 658.764674 398.063712 658.764674L476.276337 658.764674 476.276337 740.190078C476.276337 761.63884 493.727075 778.924517 515.383221 778.924517 537.03937 778.924517 554.490109 761.639977 554.490109 740.190078L554.490109 658.764674 632.702734 658.764674C654.357736 658.764674 671.809621 641.480134 671.809621 620.030235 671.809621 598.580337 654.358883 581.295793 632.702734 581.295793L554.490109 581.295793 554.490109 542.561355 632.702734 542.561355C654.357736 542.561355 671.809621 525.276815 671.809621 503.826917 671.809621 482.377018 654.358883 465.092478 632.702734 465.092478L554.490109 465.092478 554.490109 448.433309 670.338301 337.437257 670.339444 337.436122Z" p-id="1257"></path></svg>