<?xml version="1.0" standalone="no"?><!DOCTYPE svg PUBLIC "-//W3C//DTD SVG 1.1//EN" "http://www.w3.org/Graphics/SVG/1.1/DTD/svg11.dtd"><svg t="1544062686518" class="icon" style="" viewBox="0 0 1391 1024" version="1.1" xmlns="http://www.w3.org/2000/svg" p-id="1362" xmlns:xlink="http://www.w3.org/1999/xlink" width="271.6796875" height="200"><defs><style type="text/css"></style></defs><path d="M1177.73653333 795.98933333l-278.528-281.25866666c-19.11466667-19.11466667-30.03733333-46.42133333-30.03733333-73.728V20.48h68.26666667c16.384 0 27.30666667-10.92266667 27.30666666-27.30666667s-10.92266667-27.30666667-27.30666666-27.30666666h-101.03466667c-16.384 0-24.576 10.92266667-24.576 27.30666666v447.82933334c0 43.69066667 16.384 81.92 46.42133333 111.95733333l81.92 81.92c-46.42133333 19.11466667-133.80266667 38.22933333-237.568-13.65333333-73.728-35.49866667-144.72533333-35.49866667-199.33866666-24.576l43.69066666-43.69066667c30.03733333-30.03733333 49.152-70.99733333 49.152-111.95733333V-6.82666667c0-16.384-13.65333333-27.30666667-30.03733333-27.30666666h-101.03466667c-16.384 0-27.30666667 10.92266667-27.30666666 27.30666666s10.92266667 27.30666667 27.30666666 27.30666667h76.45866667v420.52266667c0 27.30666667-13.65333333 54.61333333-32.768 73.728L227.46453333 795.98933333c-43.69066667 43.69066667-57.344 106.496-32.768 163.84 24.576 60.07466667 81.92 98.304 147.456 98.304h718.16533334c65.536 0 122.88-38.22933333 147.456-98.304 24.576-57.344 13.65333333-120.14933333-30.03733334-163.84zM658.90986667 247.12533333z m-38.22933334 0zM740.82986667 383.65866667z m-38.22933334 0zM743.56053333 116.05333333z m-32.768 0zM658.90986667-31.40266667z m-32.768 0z" p-id="1363"></path></svg>