<?xml version="1.0" standalone="no"?><!DOCTYPE svg PUBLIC "-//W3C//DTD SVG 1.1//EN" "http://www.w3.org/Graphics/SVG/1.1/DTD/svg11.dtd"><svg t="1534931627787" class="icon" style="" viewBox="0 0 1024 1024" version="1.1" xmlns="http://www.w3.org/2000/svg" p-id="1200" xmlns:xlink="http://www.w3.org/1999/xlink" width="200" height="200"><defs><style type="text/css"></style></defs><path d="M872.303 938.917H154.456c-47.049 0-85.327-38.278-85.327-85.327V185.412c0-47.05 38.278-85.328 85.327-85.328h717.847c47.049 0 85.327 38.278 85.327 85.328V853.59c-0.001 47.049-38.279 85.327-85.327 85.327zM154.456 154.66c-16.955 0-30.75 13.794-30.75 30.751V853.59c0 16.955 13.794 30.75 30.75 30.75h717.847c16.955 0 30.75-13.794 30.75-30.75V185.412c0-16.957-13.794-30.751-30.75-30.751H154.456z" p-id="1201"></path><path d="M96.418 269.422H930.34v97.533H96.418zM730.177 578.916H245.985c-15.072 0-27.288-12.219-27.288-27.289 0-15.07 12.217-27.288 27.288-27.288h484.193c15.07 0 27.289 12.219 27.289 27.288-0.001 15.071-12.22 27.289-27.29 27.289zM491.593 733.027H245.985c-15.072 0-27.288-12.219-27.288-27.289 0-15.07 12.217-27.288 27.288-27.288h245.608c15.072 0 27.289 12.219 27.289 27.288-0.001 15.07-12.218 27.289-27.289 27.289z" p-id="1202"></path></svg>