<?xml version="1.0" standalone="no"?><!DOCTYPE svg PUBLIC "-//W3C//DTD SVG 1.1//EN" "http://www.w3.org/Graphics/SVG/1.1/DTD/svg11.dtd"><svg t="1542346327417" class="icon" style="" viewBox="0 0 1024 1024" version="1.1" xmlns="http://www.w3.org/2000/svg" p-id="1278" xmlns:xlink="http://www.w3.org/1999/xlink" width="200" height="200"><defs><style type="text/css"></style></defs><path d="M1004.266548 657.313454l0 309.798623c0 31.421476-25.456215 56.887923-56.877691 56.887923L82.678724 1024c-31.410221 0-56.899178-25.466447-56.899178-56.887923L25.779546 657.313454c0-31.424545 25.466447-56.890992 56.888946-56.890992 31.422499 0 56.888946 25.466447 56.888946 56.890992l0 252.909678 750.933265 0L890.490703 657.313454c0-31.424545 25.46747-56.890992 56.888946-56.890992C978.801124 600.423485 1004.266548 625.889932 1004.266548 657.313454zM328.712492 328.401438l129.42161-132.134115 0 492.5996c0 31.410221 25.46747 56.889969 56.887923 56.889969 31.423522 0 56.889969-25.478725 56.889969-56.889969l0-492.5996L701.333602 328.401438c11.133449 11.376971 25.890052 17.088478 40.645632 17.088478 14.355508 0 28.733527-5.410686 39.798421-16.244337 22.445958-21.999842 22.833751-58.011397 0.844141-80.455308L555.689143 17.091548c-10.700635-10.934948-25.354918-17.089501-40.643585-17.089501-15.289691 0-29.944997 6.155576-40.645632 17.077223L247.445785 248.779016c-21.988587 22.455167-21.622281 58.466721 0.822654 80.455308C270.71235 351.223934 306.734137 350.84535 328.712492 328.401438z" p-id="1279"></path></svg>