<?xml version="1.0" standalone="no"?><!DOCTYPE svg PUBLIC "-//W3C//DTD SVG 1.1//EN" "http://www.w3.org/Graphics/SVG/1.1/DTD/svg11.dtd"><svg t="1534931631432" class="icon" style="" viewBox="0 0 1024 1024" version="1.1" xmlns="http://www.w3.org/2000/svg" p-id="1321" xmlns:xlink="http://www.w3.org/1999/xlink" width="200" height="200"><defs><style type="text/css"></style></defs><path d="M922.624 128c-27.648-28.16-73.216-28.16-100.864 0L506.88 448l100.864 102.912 314.88-320c27.648-28.16 27.648-74.24 0-102.912z m-447.488 436.736c-2.048 10.752 7.168 19.968 17.408 17.92l102.4-18.944-100.864-102.912c0.512 0-18.944 103.936-18.944 103.936z" p-id="1322"></path><path d="M704.512 560.128h-55.808l-63.488 13.312-102.4 18.944c-10.24 2.048-19.456-17.408-17.408-28.16 0 0 0.512-4.096 1.024-4.608h-222.208c-16.896 0-30.72 13.824-30.72 30.72s13.824 30.72 30.72 30.72h460.8c16.896 0 30.72-13.824 30.72-30.72-0.512-16.384-14.336-30.208-31.232-30.208zM686.08 255.488h-431.616c-16.896 0-30.72 13.824-30.72 30.72s13.824 30.72 30.72 30.72h371.2l60.416-61.44zM494.592 455.68l13.824 13.824h9.216l-20.992-21.504 39.424-39.936h-282.112c-16.896 0-30.72 13.824-30.72 30.72s13.824 30.72 30.72 30.72h233.472c0.512-1.536 7.168-13.824 7.168-13.824zM698.368 469.504h16.896c16.896 0 25.088-14.848 30.72-30.72 2.56-7.168 3.072-11.776 2.56-19.968l-50.176 50.688z" p-id="1323"></path><path d="M827.392 363.52v550.912c0 13.824-9.216 18.944-25.088 18.944h-624.64c-17.92 0-32.256-14.848-32.256-32.256V121.856c0-17.92 14.848-32.256 32.256-32.256h616.96c9.728 0 17.92 4.096 24.064 10.752l2.56-2.56c16.384-16.384 38.4-23.04 59.392-20.48-16.384-31.232-48.64-52.224-86.016-52.224h-616.96c-53.76 0-97.28 44.032-97.28 97.28V901.632c0 53.76 44.032 97.28 97.28 97.28h636.928c49.664 0 77.312-29.696 77.312-81.408v-619.52l-64.512 65.536z" p-id="1324"></path><path d="M714.752 712.704h-460.8c-16.896 0-30.72 13.824-30.72 30.72s13.824 30.72 30.72 30.72h460.8c16.896 0 30.72-13.824 30.72-30.72s-13.824-30.72-30.72-30.72z" p-id="1325"></path></svg>